<svg xmlns="http://www.w3.org/2000/svg" viewBox="0 0 3200 800"><svg height="800" width="800" version="1.1" id="Capa_1" xmlns="http://www.w3.org/2000/svg" xmlns:xlink="http://www.w3.org/1999/xlink" viewBox="0 0 512 512" xml:space="preserve" x="0"><path style="fill:#306FC5;" d="M512,402.281c0,16.716-13.55,30.267-30.265,30.267H30.265C13.55,432.549,0,418.997,0,402.281V109.717  c0-16.715,13.55-30.266,30.265-30.266h451.47c16.716,0,30.265,13.551,30.265,30.266V402.281L512,402.281z" /><path style="opacity:0.15;fill:#202121;enable-background:new    ;" d="M21.517,402.281V109.717  c0-16.715,13.552-30.266,30.267-30.266h-21.52C13.55,79.451,0,93.001,0,109.717v292.565c0,16.716,13.55,30.267,30.265,30.267h21.52  C35.07,432.549,21.517,418.997,21.517,402.281z" /><g>	<polygon style="fill:#FFFFFF;" points="74.59,220.748 89.888,220.748 82.241,201.278  " />	<polygon style="fill:#FFFFFF;" points="155.946,286.107 155.946,295.148 181.675,295.148 181.675,304.885 155.946,304.885    155.946,315.318 184.455,315.318 197.666,300.712 185.151,286.107  " />	<polygon style="fill:#FFFFFF;" points="356.898,201.278 348.553,220.748 364.548,220.748  " />	<polygon style="fill:#FFFFFF;" points="230.348,320.875 230.348,281.241 212.268,300.712  " />	<path style="fill:#FFFFFF;" d="M264.42,292.368c-0.696-4.172-3.48-6.261-7.654-6.261h-14.599v12.516h15.299   C261.637,298.624,264.42,296.539,264.42,292.368z" />	<path style="fill:#FFFFFF;" d="M313.09,297.236c1.391-0.697,2.089-2.785,2.089-4.867c0.696-2.779-0.698-4.172-2.089-4.868   c-1.387-0.696-3.476-0.696-5.559-0.696h-13.91v11.127h13.909C309.613,297.932,311.702,297.932,313.09,297.236z" />	<path style="fill:#FFFFFF;" d="M413.217,183.198v8.344l-4.169-8.344H376.37v8.344l-4.174-8.344h-44.502   c-7.648,0-13.909,1.392-19.469,4.173v-4.173h-31.289v0.696v3.477c-3.476-2.78-7.648-4.173-13.211-4.173h-111.95l-7.652,17.384   l-7.647-17.384h-25.031h-10.431v8.344l-3.477-8.344h-0.696H66.942l-13.909,32.68L37.042,251.34l-0.294,0.697h0.294h35.463h0.444   l0.252-0.697l4.174-10.428h9.039l4.172,11.125h40.326v-0.697v-7.647l3.479,8.343h20.163l3.475-8.343v7.647v0.697h15.993h79.965   h0.696v-18.08h1.394c1.389,0,1.389,0,1.389,2.087v15.297h50.065v-4.172c4.172,2.089,10.426,4.172,18.771,4.172h20.863l4.172-11.123   h9.732l4.172,11.123h40.328v-6.952v-3.476l6.261,10.428h1.387h0.698h30.595v-68.143h-31.291l0,0H413.217z M177.501,241.609h-6.955   h-4.171v-4.169v-34.076l-0.696,1.595v-0.019l-16.176,36.669h-0.512h-3.719h-6.017l-16.687-38.245v38.245h-23.64l-4.867-10.43   H70.417l-4.868,10.43H53.326l20.57-48.675h17.382l19.469,46.587v-46.587h4.171h14.251l0.328,0.697h0.024l8.773,19.094l6.3,14.306   l0.223-0.721l13.906-33.375H177.5v48.674H177.501L177.501,241.609z M225.481,203.364h-27.119v9.039h26.423v9.734h-26.423v9.738   h27.119v10.427h-38.939v-49.367h38.939V203.364L225.481,203.364z M275.076,221.294c0.018,0.016,0.041,0.027,0.063,0.042   c0.263,0.278,0.488,0.557,0.68,0.824c1.332,1.746,2.409,4.343,2.463,8.151c0.004,0.066,0.007,0.131,0.011,0.197   c0,0.038,0.007,0.071,0.007,0.11c0,0.022-0.002,0.039-0.002,0.06c0.016,0.383,0.026,0.774,0.026,1.197v9.735h-10.428v-5.565   c0-2.781,0-6.954-2.089-9.735c-0.657-0.657-1.322-1.09-2.046-1.398c-1.042-0.675-3.017-0.686-6.295-0.686h-12.52v17.384h-11.818   v-48.675h26.425c6.254,0,10.428,0,13.906,2.086c3.407,2.046,5.465,5.439,5.543,10.812c-0.161,7.4-4.911,11.46-8.326,12.829   C270.676,218.662,272.996,219.129,275.076,221.294z M298.491,241.609h-11.822v-48.675h11.822V241.609z M434.083,241.609h-15.3   l-22.25-36.855v30.595l-0.073-0.072v6.362h-11.747v-0.029h-11.822l-4.172-10.43H344.38l-4.172,11.123h-13.211   c-5.559,0-12.517-1.389-16.687-5.561c-4.172-4.172-6.256-9.735-6.256-18.773c0-6.953,1.389-13.911,6.256-19.472   c3.474-4.175,9.735-5.562,17.382-5.562h11.128v10.429h-11.128c-4.172,0-6.254,0.693-9.041,2.783   c-2.082,2.085-3.474,6.256-3.474,11.123c0,5.564,0.696,9.04,3.474,11.821c2.091,2.089,4.87,2.785,8.346,2.785h4.867l15.991-38.243   h6.957h10.428l19.472,46.587v-2.376v-15.705v-1.389v-27.116h17.382l20.161,34.07v-34.07h11.826v47.977h0.002L434.083,241.609   L434.083,241.609z" />	<path style="fill:#FFFFFF;" d="M265.161,213.207c0.203-0.217,0.387-0.463,0.543-0.745c0.63-0.997,1.352-2.793,0.963-5.244   c-0.016-0.225-0.057-0.433-0.105-0.634c-0.013-0.056-0.011-0.105-0.026-0.161l-0.007,0.001c-0.346-1.191-1.229-1.923-2.11-2.367   c-1.394-0.693-3.48-0.693-5.565-0.693h-13.909v11.127h13.909c2.085,0,4.172,0,5.565-0.697c0.209-0.106,0.395-0.25,0.574-0.413   l0.002,0.009C264.996,213.389,265.067,213.315,265.161,213.207z" />	<path style="fill:#FFFFFF;" d="M475.105,311.144c0-4.867-1.389-9.736-3.474-13.212v-31.289h-0.032v-2.089c0,0-29.145,0-33.483,0   c-4.336,0-9.598,4.171-9.598,4.171v-4.171h-31.984c-4.87,0-11.124,1.392-13.909,4.171v-4.171h-57.016v2.089v2.081   c-4.169-3.474-11.824-4.171-15.298-4.171h-37.549v2.089v2.081c-3.476-3.474-11.824-4.171-15.998-4.171H215.05l-9.737,10.431   l-9.04-10.431h-2.911h-4.737h-54.93v2.089v5.493v62.651h61.19l10.054-10.057l8.715,10.057h0.698h35.258h1.598h0.696h0.692v-6.953   v-9.039h3.479c4.863,0,11.124,0,15.991-2.089v17.382v1.394h31.291v-1.394V317.4h1.387c2.089,0,2.089,0,2.089,2.086v14.6v1.394   h94.563c6.263,0,12.517-1.394,15.993-4.175v2.781v1.394h29.902c6.254,0,12.517-0.695,16.689-3.478   c6.402-3.841,10.437-10.64,11.037-18.749c0.028-0.24,0.063-0.48,0.085-0.721l-0.041-0.039   C475.087,312.043,475.105,311.598,475.105,311.144z M256.076,306.973h-13.91v2.081v4.174v4.173v7.649h-22.855l-13.302-15.299   l-0.046,0.051l-0.65-0.748l-15.297,15.996h-44.501v-48.673h45.197l12.348,13.525l2.596,2.832l0.352-0.365l14.604-15.991h36.852   c7.152,0,15.161,1.765,18.196,9.042c0.365,1.441,0.577,3.043,0.577,4.863C276.237,304.189,266.502,306.973,256.076,306.973z    M325.609,306.276c1.389,2.081,2.085,4.867,2.085,9.041v9.732h-11.819v-6.256c0-2.786,0-7.65-2.089-9.739   c-1.387-2.081-4.172-2.081-8.341-2.081H292.93v18.077h-11.82v-49.369h26.421c5.559,0,10.426,0,13.909,2.084   c3.474,2.088,6.254,5.565,6.254,11.128c0,7.647-4.865,11.819-8.343,13.212C322.829,303.49,324.914,304.885,325.609,306.276z    M373.589,286.107h-27.122v9.04h26.424v9.737h-26.424v9.736h27.122v10.429H334.65V275.68h38.939V286.107z M402.791,325.05h-22.252   v-10.429h22.252c2.082,0,3.476,0,4.87-1.392c0.696-0.697,1.387-2.085,1.387-3.477c0-1.394-0.691-2.778-1.387-3.475   c-0.698-0.695-2.091-1.391-4.176-1.391c-11.126-0.696-24.337,0-24.337-15.296c0-6.954,4.172-14.604,16.689-14.604h22.945v11.819   h-21.554c-2.085,0-3.478,0-4.87,0.696c-1.387,0.697-1.387,2.089-1.387,3.478c0,2.087,1.387,2.783,2.778,3.473   c1.394,0.697,2.783,0.697,4.172,0.697h6.259c6.259,0,10.43,1.391,13.211,4.173c2.087,2.087,3.478,5.564,3.478,10.43   C420.869,320.179,414.611,325.05,402.791,325.05z M462.59,320.179c-2.778,2.785-7.648,4.871-14.604,4.871H425.74v-10.429h22.245   c2.087,0,3.481,0,4.87-1.392c0.693-0.697,1.391-2.085,1.391-3.477c0-1.394-0.698-2.778-1.391-3.475   c-0.696-0.695-2.085-1.391-4.172-1.391c-11.122-0.696-24.337,0-24.337-15.295c0-6.609,3.781-12.579,13.106-14.352   c1.115-0.154,2.293-0.253,3.583-0.253h22.948v11.819h-15.3h-5.561h-0.696c-2.087,0-3.476,0-4.865,0.696   c-0.7,0.697-1.396,2.089-1.396,3.478c0,2.087,0.696,2.783,2.785,3.473c1.389,0.697,2.78,0.697,4.172,0.697h0.691h5.565   c3.039,0,5.337,0.375,7.44,1.114c1.926,0.697,8.302,3.549,9.728,10.994c0.124,0.78,0.215,1.594,0.215,2.495   C466.761,313.925,465.37,317.401,462.59,320.179z" /></g></svg><svg width="800" height="800" viewBox="0 0 141.732 141.732" xmlns="http://www.w3.org/2000/svg" x="800"><g fill="#2566af"><path d="M62.935 89.571h-9.733l6.083-37.384h9.734zM45.014 52.187L35.735 77.9l-1.098-5.537.001.002-3.275-16.812s-.396-3.366-4.617-3.366h-15.34l-.18.633s4.691.976 10.181 4.273l8.456 32.479h10.141l15.485-37.385H45.014zM121.569 89.571h8.937l-7.792-37.385h-7.824c-3.613 0-4.493 2.786-4.493 2.786L95.881 89.571h10.146l2.029-5.553h12.373l1.14 5.553zm-10.71-13.224l5.114-13.99 2.877 13.99h-7.991zM96.642 61.177l1.389-8.028s-4.286-1.63-8.754-1.63c-4.83 0-16.3 2.111-16.3 12.376 0 9.658 13.462 9.778 13.462 14.851s-12.075 4.164-16.06.965l-1.447 8.394s4.346 2.111 10.986 2.111c6.642 0 16.662-3.439 16.662-12.799 0-9.72-13.583-10.625-13.583-14.851.001-4.227 9.48-3.684 13.645-1.389z" /></g><path d="M34.638 72.364l-3.275-16.812s-.396-3.366-4.617-3.366h-15.34l-.18.633s7.373 1.528 14.445 7.253c6.762 5.472 8.967 12.292 8.967 12.292z" fill="#e6a540" /><path fill="none" d="M0 0h141.732v141.732H0z" /></svg><svg width="800" height="800" viewBox="0 0 192.756 192.756" xmlns="http://www.w3.org/2000/svg" x="1600"><g fill-rule="evenodd" clip-rule="evenodd"><path fill="#ffffff" d="M0 0h192.756v192.756H0V0z" /><path d="M96.42 133.041c8.667 7.986 20.306 12.83 32.966 12.83 27.189 0 49.195-22.176 49.195-49.451 0-27.358-22.006-49.535-49.195-49.535-12.66 0-24.299 4.843-32.966 12.83-9.941 9.091-16.229 22.176-16.229 36.705.001 14.529 6.288 27.615 16.229 36.621z" fill="#e9b040" /><path d="M172.041 123.949c0-.85.68-1.529 1.529-1.529.934 0 1.613.68 1.613 1.529 0 .936-.68 1.615-1.613 1.615-.849 0-1.529-.679-1.529-1.615zm1.529 1.276c.68 0 1.273-.596 1.273-1.275s-.594-1.189-1.273-1.189c-.596 0-1.189.51-1.189 1.189s.594 1.275 1.189 1.275zm-.17-.51h-.34v-1.445h.594c.086 0 .256 0 .34.086.17.084.17.17.17.34s-.084.34-.254.34l.34.68h-.426l-.17-.596h-.254v.595-.85h.34c.084 0 .084-.086.084-.17 0-.086 0-.086-.084-.17h-.34v1.19z" fill="#e9b040" /><path d="M112.309 91.153c-.17-1.784-.51-3.483-.85-5.268H81.381c.34-1.784.85-3.483 1.359-5.183h27.275a56.916 56.916 0 0 0-2.039-5.268H84.865a62.38 62.38 0 0 1 2.804-5.268h17.419a44.706 44.706 0 0 0-3.738-5.183h-9.942a48.87 48.87 0 0 1 5.013-5.268c-8.751-7.902-20.307-12.83-33.052-12.83-27.104 0-49.195 22.177-49.195 49.535 0 27.275 22.091 49.451 49.195 49.451 12.745 0 24.3-4.844 33.052-12.83a47.105 47.105 0 0 0 4.929-5.184h-9.942c-1.36-1.699-2.549-3.398-3.739-5.268h17.419a39.517 39.517 0 0 0 2.889-5.268H84.865c-.765-1.699-1.529-3.398-2.125-5.184h27.275c.594-1.699 1.02-3.482 1.443-5.268.34-1.699.68-3.482.85-5.268a51.61 51.61 0 0 0 .256-5.184c0-1.781-.085-3.565-.255-5.264z" fill="#cc2131" /><path d="M172.041 107.891c0-.934.68-1.613 1.529-1.613.934 0 1.613.68 1.613 1.613 0 .85-.68 1.615-1.613 1.615-.849 0-1.529-.766-1.529-1.615zm1.529 1.189c.68 0 1.273-.51 1.273-1.189s-.594-1.189-1.273-1.189c-.596 0-1.189.51-1.189 1.189s.594 1.189 1.189 1.189zm-.17-.51h-.34v-1.359H173.994c.17.086.17.256.17.426 0 .084-.084.254-.254.34l.34.594h-.426l-.17-.51h-.254v.509-.764h.17c.084 0 .17 0 .17-.086.084 0 .084-.084.084-.17 0 0 0-.084-.084-.084 0-.086-.086 0-.17 0h-.17v1.104z" fill="#ffffff" /><path d="M79.682 110.695c-1.614.424-2.804.68-3.993.68-2.549 0-4.079-1.615-4.079-4.504 0-.594.085-1.189.17-1.869l.34-1.953.255-1.615L74.669 87.5h5.098l-.595 3.059h3.229l-.765 5.098h-3.229l-1.359 8.326c-.085.426-.085.68-.085.85 0 1.105.51 1.529 1.784 1.529.595 0 1.104-.084 1.614-.17l-.679 4.503zM96.166 110.525c-1.869.51-3.568.764-5.438.764-5.778 0-9.092-3.059-9.092-9.09 0-7.053 3.909-12.151 9.346-12.151 4.333 0 7.137 2.889 7.137 7.391 0 1.531-.17 2.975-.594 5.014H86.904c-.085.34-.085.51-.085.68 0 2.379 1.614 3.568 4.673 3.568 1.954 0 3.653-.424 5.523-1.273l-.849 5.097zm-3.144-12.15v-1.02c0-1.699-.935-2.634-2.549-2.634-1.7 0-2.889 1.274-3.399 3.653h5.948v.001zM38.898 110.949H33.63l3.059-19.286-6.882 19.286h-3.653l-.425-19.201-3.229 19.201h-5.183l4.163-25.064h7.732l.17 15.465 5.183-15.465h8.497l-4.164 25.064zM51.729 101.859c-.51-.086-.68-.086-1.02-.086-3.059 0-4.588 1.189-4.588 3.059 0 1.275.765 2.125 1.954 2.125 2.549 0 3.568-2.125 3.654-5.098zm4.248 9.09h-4.588l.085-2.123c-1.19 1.613-2.804 2.463-5.608 2.463-2.549 0-4.758-2.293-4.758-5.607 0-.934.17-1.783.425-2.633.849-3.145 3.993-5.098 8.836-5.184.595 0 1.529 0 2.379.086.169-.68.169-.936.169-1.36 0-1.36-1.104-1.785-3.568-1.785-1.529 0-3.229.255-4.418.68l-.765.17-.34.084.765-4.588c2.464-.765 4.248-1.104 6.203-1.104 4.588 0 7.052 2.124 7.052 6.032 0 1.02.085 1.785-.255 3.994l-1.189 7.307-.17 1.275-.085 1.02-.085.68-.085.593zM121.826 90.728c1.529 0 2.889.425 4.758 1.359l.934-5.438c-.51-.255-.68-.255-1.359-.51l-2.123-.595c-.68-.17-1.529-.255-2.465-.255-2.635 0-4.164.085-5.777 1.02-.85.595-1.955 1.36-3.145 2.719l-.68-.17-5.438 3.823.256-2.124h-5.609l-3.312 20.391h5.354l1.953-10.959s.766-1.531 1.105-2.039c1.02-1.275 1.869-1.275 2.973-1.275h.426a27.428 27.428 0 0 0-.256 3.908c0 6.627 3.738 10.791 9.516 10.791 1.445 0 2.721-.17 4.674-.68l.936-5.777c-1.699.934-3.229 1.359-4.504 1.359-3.143 0-5.014-2.379-5.014-6.117-.002-5.523 2.803-9.431 6.797-9.431zM166.941 85.885l-1.188 7.137c-1.275-1.954-2.805-2.889-4.844-2.889-2.805 0-5.438 1.614-7.053 4.673v-.084l-3.398-2.04.34-2.124h-5.693l-3.229 20.391h5.268l1.785-10.959s1.359-1.531 1.699-2.039c.85-1.02 1.699-1.191 2.379-1.275-.594 1.699-.934 3.738-.934 6.033 0 5.098 2.633 8.496 6.541 8.496 1.955 0 3.484-.68 4.928-2.295l-.254 2.039h5.014l4.078-25.064h-5.439zm-6.541 20.222c-1.785 0-2.719-1.359-2.719-3.994 0-3.994 1.699-6.882 4.162-6.882 1.869 0 2.805 1.445 2.805 3.994 0 4.078-1.699 6.882-4.248 6.882zM135.846 101.859c-.51-.086-.68-.086-1.02-.086-3.061 0-4.59 1.189-4.59 3.059 0 1.275.766 2.125 1.955 2.125 2.549 0 3.569-2.125 3.655-5.098zm4.248 9.09h-4.674l.17-2.123c-1.189 1.613-2.805 2.463-5.607 2.463-2.635 0-4.928-2.209-4.928-5.607 0-4.842 3.652-7.816 9.43-7.816.596 0 1.529 0 2.295.086.17-.68.256-.936.256-1.36 0-1.36-1.105-1.785-3.654-1.785-1.445 0-3.229.255-4.418.68l-.68.17-.34.084.764-4.588c2.465-.765 4.25-1.104 6.203-1.104 4.588 0 6.967 2.124 6.967 6.032 0 1.02.17 1.785-.254 3.994l-1.105 7.307-.17 1.275-.17 1.02-.084.68v.592h-.001zM67.107 94.891c1.02 0 2.464.085 3.994.34l.765-4.758c-1.53-.17-3.569-.425-4.759-.425-5.947 0-7.901 3.229-7.901 6.967 0 2.465 1.104 4.248 3.993 5.607 2.124 1.02 2.464 1.189 2.464 2.125 0 1.273-1.104 2.039-3.144 2.039-1.614 0-3.144-.256-4.843-.85l-.595 4.672.084.086 1.02.17c.34.084.765.17 1.36.254 1.274.086 2.379.17 3.059.17 5.948 0 8.412-2.293 8.412-6.797 0-2.803-1.36-4.502-3.994-5.691-2.294-1.021-2.549-1.189-2.549-2.125 0-.934 1.02-1.784 2.634-1.784z" fill="#1b3771" /><path d="M128.963 85.035l-.936 5.438c-1.869-.935-3.229-1.359-4.758-1.359-3.994 0-6.797 3.908-6.797 9.431 0 3.824 1.869 6.117 5.014 6.117 1.273 0 2.803-.424 4.502-1.273l-.934 5.691c-1.955.51-3.229.766-4.674.766-5.777 0-9.346-4.164-9.346-10.875 0-8.922 4.928-15.21 11.98-15.21.934 0 1.783.085 2.463.255l2.125.51c.681.255.851.34 1.361.509zM111.799 88.774h-.51c-1.783 0-2.803.85-4.418 3.313l.51-3.144h-4.844l-3.312 20.392h5.354c1.953-12.49 2.463-14.614 5.012-14.614h.34c.51-2.464 1.189-4.249 2.039-5.863l-.171-.084zM81.042 109.08c-1.444.51-2.634.68-3.823.68-2.719 0-4.249-1.529-4.249-4.502 0-.51.085-1.189.17-1.785l.34-2.039.255-1.613 2.294-13.936h5.268l-.595 3.059h2.719l-.68 5.013h-2.719l-1.444 8.497c-.085.34-.085.596-.085.85 0 1.02.51 1.445 1.784 1.445.595 0 1.104 0 1.444-.17l-.679 4.501zM60.565 95.401c0 2.55 1.189 4.333 3.993 5.693 2.209 1.02 2.549 1.359 2.549 2.209 0 1.275-.935 1.869-3.059 1.869-1.614 0-3.059-.254-4.758-.764l-.765 4.672.255.086.935.17c.339.084.765.17 1.444.17 1.189.17 2.209.17 2.889.17 5.607 0 8.242-2.125 8.242-6.797 0-2.805-1.104-4.42-3.738-5.693-2.294-1.02-2.549-1.274-2.549-2.209 0-1.104.935-1.614 2.634-1.614 1.02 0 2.464.085 3.824.255l.764-4.673c-1.359-.255-3.483-.425-4.673-.425-5.948-.001-8.072 3.143-7.987 6.881zM169.662 109.336h-5.014l.256-1.955c-1.445 1.529-2.975 2.209-4.93 2.209-3.908 0-6.457-3.312-6.457-8.41 0-6.798 3.994-12.576 8.666-12.576 2.125 0 3.654.935 5.1 2.804l1.189-7.137h5.268l-4.078 25.065zm-7.818-4.758c2.465 0 4.164-2.889 4.164-6.883 0-2.634-.936-3.994-2.805-3.994-2.379 0-4.162 2.804-4.162 6.798 0 2.72.934 4.079 2.803 4.079zM97.355 108.91c-1.87.596-3.569.85-5.523.85-5.948 0-9.007-3.143-9.007-9.176 0-6.967 3.909-12.15 9.262-12.15 4.418 0 7.221 2.889 7.221 7.392 0 1.53-.17 2.975-.68 5.098H88.094c-.085.256-.085.426-.085.596 0 2.379 1.615 3.568 4.673 3.568 1.954 0 3.653-.34 5.523-1.275l-.85 5.097zm-2.974-12.15v-1.019c0-1.699-.935-2.634-2.549-2.634-1.699 0-2.889 1.275-3.399 3.653h5.948zM40.258 109.336H34.99l3.059-19.288-6.882 19.288h-3.654l-.425-19.118-3.228 19.118h-4.928l4.163-25.065h7.647l.255 15.549 5.097-15.549h8.327l-4.163 25.065zM53.428 100.244c-.51 0-.765-.084-1.19-.084-2.974 0-4.503 1.104-4.503 3.143 0 1.275.68 2.039 1.869 2.039 2.209 0 3.739-2.039 3.824-5.098zm3.908 9.092h-4.419l.085-2.125c-1.36 1.699-3.144 2.465-5.608 2.465-2.889 0-4.843-2.209-4.843-5.523 0-5.012 3.398-7.901 9.346-7.901.595 0 1.36.085 2.209.169.17-.679.17-.934.17-1.274 0-1.359-.935-1.869-3.399-1.869-1.529 0-3.229.17-4.418.51l-.765.255-.51.085.765-4.588c2.634-.765 4.418-1.02 6.373-1.02 4.588 0 7.052 2.039 7.052 5.947 0 1.02-.085 1.785-.425 4.079l-1.19 7.223-.17 1.273-.085 1.02-.085.766-.083.508zM137.545 100.244c-.596 0-.85-.084-1.189-.084-3.059 0-4.59 1.104-4.59 3.143 0 1.275.766 2.039 1.955 2.039 2.125 0 3.738-2.039 3.824-5.098zm3.908 9.092h-4.418l.084-2.125c-1.359 1.699-3.143 2.465-5.607 2.465-2.889 0-4.844-2.209-4.844-5.523 0-5.012 3.398-7.901 9.346-7.901.596 0 1.361.085 2.125.169.17-.679.256-.934.256-1.274 0-1.359-.936-1.869-3.398-1.869-1.531 0-3.314.17-4.504.51l-.68.255-.51.085.764-4.588c2.635-.765 4.418-1.02 6.373-1.02 4.588 0 6.967 2.039 6.967 5.947 0 1.02 0 1.785-.424 4.079l-1.105 7.223-.17 1.273-.17 1.02-.084.766v.508h-.001zM155.727 88.774h-.51c-1.783 0-2.803.85-4.418 3.313l.51-3.144h-4.844l-3.229 20.392h5.268c1.955-12.49 2.465-14.614 5.014-14.614h.34c.51-2.464 1.189-4.249 2.039-5.863l-.17-.084z" fill="#ffffff" /></g></svg><svg height="800" width="800" version="1.1" id="Capa_1" xmlns="http://www.w3.org/2000/svg" xmlns:xlink="http://www.w3.org/1999/xlink" viewBox="0 0 512 512" xml:space="preserve" fill="#000000" x="2400"><g id="SVGRepo_bgCarrier" stroke-width="0" /><g id="SVGRepo_tracerCarrier" stroke-linecap="round" stroke-linejoin="round" /><g id="SVGRepo_iconCarrier"> <path style="fill:#ffffff;" d="M512,402.282c0,16.716-13.55,30.267-30.265,30.267H30.265C13.55,432.549,0,418.996,0,402.282V109.717 c0-16.716,13.55-30.266,30.265-30.266h451.469c16.716,0,30.265,13.551,30.265,30.266L512,402.282L512,402.282z" /> <path style="opacity:0.15;fill:#ffffff;enable-background:new ;" d="M21.517,402.282V109.717 c0-16.716,13.552-30.266,30.267-30.266h-21.52C13.55,79.451,0,93.003,0,109.717V402.28c0,16.716,13.55,30.267,30.265,30.267h21.52 C35.07,432.549,21.517,418.996,21.517,402.282z" /> <path style="fill:#0F549D;" d="M196.197,143.37h-53.654c-26.067,0-43.58,17.514-43.58,43.58v77.954c0,0.038,0.004,0.077,0.011,0.115 c2.057,9.774,12.302,17.143,23.83,17.143c12.727,0,22.322-8.942,22.322-20.802v-38.929h32.8v38.421 c0,21.91-28.205,32.252-47.261,32.342c-11.272-0.047-22.318-3.509-30.307-9.502c-0.167-0.125-0.394-0.146-0.582-0.052 c0,0-0.002,0.001-0.004,0.002c-0.157-0.079-0.344-0.081-0.502-0.002c-0.187,0.095-0.306,0.287-0.306,0.498v86.049 c0,0.307,0.248,0.557,0.557,0.557h55.174c19.452,0,42.061-18.373,42.061-42.061V143.927 C196.754,143.618,196.507,143.37,196.197,143.37z" /> <path style="fill:#B41F36;" d="M304.016,143.37h-53.148c-26.474,0-43.58,16.908-43.58,43.077v44.036 c0,0.216,0.124,0.412,0.319,0.504c0.196,0.091,0.426,0.061,0.593-0.077c4.639-3.868,12.118-8.478,21.408-8.478h57.148v10.396 c-13.876-3.038-26.711-4.422-32.853-4.422c-14.543,0-26.374,11.831-26.374,26.372l0.004,0.161l-0.004,0.345 c0,14.542,11.831,26.372,26.374,26.372c7.45,0,20.42-1.212,32.853-3.916v9.383h-57.148c-8.22,0-16.009-3.079-21.372-8.445 c-0.161-0.16-0.4-0.207-0.607-0.12c-0.209,0.086-0.344,0.289-0.344,0.514v91.112c0,0.307,0.248,0.557,0.557,0.557h54.663 c19.455,0,42.065-18.373,42.065-42.061V143.927C304.572,143.618,304.324,143.37,304.016,143.37z" /> <g> <path style="fill:#329947;" d="M333.324,280.595c0,0.307,0.25,0.557,0.557,0.557h23.789c6.387,0,12.202-5.816,12.202-12.2 c0-6.383-5.816-12.198-12.202-12.198h-23.789c-0.306,0-0.557,0.249-0.557,0.557V280.595z" /> <path style="fill:#329947;" d="M413.352,143.37h-52.646c-14.013,0-25.4,4.739-33.017,13.08v-0.001c0,0-11.069,10.798-11.069,28.606 c0,0.658,0,1.283,0,1.894v15.914v19.012c0,0.307,0.248,0.557,0.557,0.557h63.781c8.752,0,16.148,7.396,16.148,16.149 c0,8.753-7.396,16.148-16.148,16.148c-0.308,0-0.557,0.249-0.557,0.557s0.248,0.557,0.557,0.557 c9.904,0,17.665,6.871,17.665,15.642c0,8.918-7.595,15.643-17.665,15.643h-63.781c-0.308,0-0.557,0.249-0.557,0.557v82.504 c0,0.307,0.248,0.557,0.557,0.557h54.669c19.453,0,42.063-18.373,42.063-42.061V143.927 C413.909,143.618,413.658,143.37,413.352,143.37z" /> <path style="fill:#329947;" d="M333.881,252.299h23.789c6.339,0,11.694-5.355,11.694-11.694c0-6.384-5.813-12.199-12.196-12.199 h-23.287c-0.306,0-0.557,0.249-0.557,0.557v22.78C333.324,252.05,333.574,252.299,333.881,252.299z" /> </g> </g></svg></svg>